<?xml version="1.0" encoding="utf-8"?>
<!-- Generated by IcoMoon.io -->
<!DOCTYPE svg PUBLIC "-//W3C//DTD SVG 1.1//EN" "http://www.w3.org/Graphics/SVG/1.1/DTD/svg11.dtd">
<svg version="1.1" xmlns="http://www.w3.org/2000/svg" xmlns:xlink="http://www.w3.org/1999/xlink" width="512" height="512" viewBox="0 0 512 512"><g id="icomoon-ignore">
</g>
<path d="M426.671 0h-341.328c-46.937 0-85.343 38.405-85.343 85.345v341.312c0 46.968 38.406 85.343 85.343 85.343h341.328c46.938 0 85.329-38.375 85.329-85.345v-341.31c0-46.94-38.391-85.345-85.329-85.345zM383.239 190.74c0.126 2.816 0.19 5.648 0.19 8.494 0 86.755-66.035 186.794-186.792 186.794-37.075 0-71.584-10.869-100.638-29.498 5.136 0.609 10.362 0.92 15.661 0.92 30.759 0 59.067-10.496 81.536-28.105-28.729-0.527-52.974-19.51-61.329-45.592 4.009 0.766 8.122 1.18 12.352 1.18 5.988 0 11.789-0.805 17.296-2.305-30.032-6.033-52.663-32.566-52.663-64.375 0-0.277 0-0.552 0.006-0.826 8.85 4.917 18.974 7.871 29.735 8.212-17.616-11.773-29.207-31.868-29.207-54.646 0-12.032 3.238-23.31 8.89-33.005 32.38 39.72 80.755 65.856 135.317 68.595-1.119-4.806-1.7-9.816-1.7-14.962 0-36.256 29.396-65.649 65.652-65.649 18.883 0 35.946 7.972 47.921 20.731 14.954-2.943 29.004-8.407 41.69-15.931-4.902 15.331-15.312 28.197-28.866 36.322 13.28-1.587 25.933-5.116 37.706-10.337-8.797 13.164-19.927 24.727-32.757 33.983z"></path>
</svg>
